{
  "accessors": [
    {
      "bufferView": 2,
      "componentType": 5126,
      "count": 1143,
      "max": [
        0.7860287427902222,
        0.2563655376434326,
        0.9989578127861023
      ],
      "min": [
        -0.7719107866287231,
        -0.24955643713474274,
        -0.9983435273170471
      ],
      "type": "VEC3"
    },
    {
      "bufferView": 2,
      "byteOffset": 13716,
      "componentType": 5126,
      "count": 1143,
      "max": [
        1.0,
        1.0,
        0.9999986290931702
      ],
      "min": [
        -0.9999999403953552,
        -1.0,
        -0.999998927116394
      ],
      "type": "VEC3"
    },
    {
      "bufferView": 3,
      "componentType": 5126,
      "count": 1143,
      "max": [
        1.0,
        0.8512731194496155,
        1.0,
        1.0
      ],
      "min": [
        -1.0,
        -0.9999602437019348,
        -0.6440160870552063,
        1.0
      ],
      "type": "VEC4"
    },
    {
      "bufferView": 1,
      "componentType": 5126,
      "count": 1143,
      "max": [
        0.9709773659706116,
        0.9995335340499878
      ],
      "min": [
        0.00046643163659609854,
        0.00046641475637443364
      ],
      "type": "VEC2"
    },
    {
      "bufferView": 0,
      "componentType": 5125,
      "count": 5616,
      "type": "SCALAR"
    },
    {
      "bufferView": 2,
      "byteOffset": 27432,
      "componentType": 5126,
      "count": 80,
      "max": [
        0.7455662488937378,
        0.20241595804691315,
        1.0029430389404297
      ],
      "min": [
        -0.7123692035675049,
        -0.2024984061717987,
        -1.0029430389404297
      ],
      "type": "VEC3"
    },
    {
      "bufferView": 2,
      "byteOffset": 28392,
      "componentType": 5126,
      "count": 80,
      "max": [
        0.7391100525856018,
        0.999983549118042,
        1.0
      ],
      "min": [
        -0.9792428612709045,
        -0.9999808669090271,
        -1.0
      ],
      "type": "VEC3"
    },
    {
      "bufferView": 3,
      "byteOffset": 18288,
      "componentType": 5126,
      "count": 80,
      "max": [
        0.9290876984596252,
        0.9998939037322998,
        0.99770587682724,
        1.0
      ],
      "min": [
        -0.9237166047096252,
        -0.9959136843681335,
        -0.9967014193534851,
        1.0
      ],
      "type": "VEC4"
    },
    {
      "bufferView": 1,
      "byteOffset": 9144,
      "componentType": 5126,
      "count": 80,
      "max": [
        0.5153224468231201,
        0.6978843808174133
      ],
      "min": [
        0.2825259864330292,
        0.0004664239822886884
      ],
      "type": "VEC2"
    },
    {
      "bufferView": 0,
      "byteOffset": 22464,
      "componentType": 5125,
      "count": 192,
      "type": "SCALAR"
    },
    {
      "bufferView": 2,
      "byteOffset": 29352,
      "componentType": 5126,
      "count": 2900,
      "max": [
        0.8954801559448242,
        0.371381014585495,
        1.0020817518234253
      ],
      "min": [
        0.09249338507652283,
        -0.28965985774993896,
        -1.0020817518234253
      ],
      "type": "VEC3"
    },
    {
      "bufferView": 2,
      "byteOffset": 64152,
      "componentType": 5126,
      "count": 2900,
      "max": [
        1.0,
        1.0,
        1.0
      ],
      "min": [
        -1.0,
        -1.0,
        -1.0
      ],
      "type": "VEC3"
    },
    {
      "bufferView": 3,
      "byteOffset": 19568,
      "componentType": 5126,
      "count": 2900,
      "max": [
        0.9859724640846252,
        0.9999960660934448,
        0.9999977946281433,
        1.0
      ],
      "min": [
        -0.9859722852706909,
        -0.9999961256980896,
        -0.9999998807907104,
        1.0
      ],
      "type": "VEC4"
    },
    {
      "bufferView": 1,
      "byteOffset": 9784,
      "componentType": 5126,
      "count": 2900,
      "max": [
        0.9375930428504944,
        0.9458688497543335
      ],
      "min": [
        0.13368737697601318,
        0.00046642785309813917
      ],
      "type": "VEC2"
    },
    {
      "bufferView": 0,
      "byteOffset": 23232,
      "componentType": 5125,
      "count": 14208,
      "type": "SCALAR"
    },
    {
      "bufferView": 2,
      "byteOffset": 98952,
      "componentType": 5126,
      "count": 746,
      "max": [
        0.8278807401657104,
        0.5042046904563904,
        0.2447352111339569
      ],
      "min": [
        -0.8098336458206177,
        -0.30042338371276855,
        -0.25456053018569946
      ],
      "type": "VEC3"
    },
    {
      "bufferView": 2,
      "byteOffset": 107904,
      "componentType": 5126,
      "count": 746,
      "max": [
        0.9999999403953552,
        1.0,
        1.0
      ],
      "min": [
        -0.9999999403953552,
        -1.0,
        -1.0
      ],
      "type": "VEC3"
    },
    {
      "bufferView": 3,
      "byteOffset": 65968,
      "componentType": 5126,
      "count": 746,
      "max": [
        0.9999995231628418,
        0.9999996423721313,
        1.0,
        1.0
      ],
      "min": [
        -0.9999991059303284,
        -0.9999992847442627,
        -1.0,
        -1.0
      ],
      "type": "VEC4"
    },
    {
      "bufferView": 1,
      "byteOffset": 32984,
      "componentType": 5126,
      "count": 746,
      "max": [
        0.9960857629776001,
        0.9177626371383667
      ],
      "min": [
        0.05106095224618912,
        0.00046639834181405604
      ],
      "type": "VEC2"
    },
    {
      "bufferView": 0,
      "byteOffset": 80064,
      "componentType": 5125,
      "count": 3024,
      "type": "SCALAR"
    }
  ],
  "asset": {
    "extras": {
      "author": "e.sena (https://sketchfab.com/e.sena)",
      "license": "CC-BY-NC-SA-4.0 (http://creativecommons.org/licenses/by-nc-sa/4.0/)",
      "source": "https://sketchfab.com/3d-models/tome-v1-b631f1a6bd8442f39af99bbf1031cf38",
      "title": "Tome_v1"
    },
    "generator": "Sketchfab-16.75.0",
    "version": "2.0"
  },
  "bufferViews": [
    {
      "buffer": 0,
      "byteLength": 92160,
      "name": "floatBufferViews",
      "target": 34963
    },
    {
      "buffer": 0,
      "byteLength": 38952,
      "byteOffset": 92160,
      "byteStride": 8,
      "name": "floatBufferViews",
      "target": 34962
    },
    {
      "buffer": 0,
      "byteLength": 116856,
      "byteOffset": 131112,
      "byteStride": 12,
      "name": "floatBufferViews",
      "target": 34962
    },
    {
      "buffer": 0,
      "byteLength": 77904,
      "byteOffset": 247968,
      "byteStride": 16,
      "name": "floatBufferViews",
      "target": 34962
    }
  ],
  "buffers": [
    {
      "byteLength": 325872,
      "uri": "scene.bin"
    }
  ],
  "extensionsUsed": [
    "KHR_materials_specular"
  ],
  "images": [
    {
      "uri": "textures/cover_baseColor.png"
    },
    {
      "uri": "textures/cover_metallicRoughness.png"
    },
    {
      "uri": "textures/cover_normal.png"
    },
    {
      "uri": "textures/paper_baseColor.png"
    },
    {
      "uri": "textures/paper_metallicRoughness.png"
    },
    {
      "uri": "textures/paper_normal.png"
    },
    {
      "uri": "textures/gold_baseColor.png"
    },
    {
      "uri": "textures/gold_metallicRoughness.png"
    },
    {
      "uri": "textures/gold_normal.png"
    },
    {
      "uri": "textures/belt_baseColor.png"
    },
    {
      "uri": "textures/belt_metallicRoughness.png"
    },
    {
      "uri": "textures/belt_normal.png"
    }
  ],
  "materials": [
    {
      "doubleSided": true,
      "name": "cover",
      "normalTexture": {
        "index": 2
      },
      "pbrMetallicRoughness": {
        "baseColorTexture": {
          "index": 0
        },
        "metallicRoughnessTexture": {
          "index": 1
        }
      }
    },
    {
      "doubleSided": true,
      "name": "paper",
      "normalTexture": {
        "index": 5
      },
      "pbrMetallicRoughness": {
        "baseColorTexture": {
          "index": 3
        },
        "metallicRoughnessTexture": {
          "index": 4
        }
      }
    },
    {
      "doubleSided": true,
      "name": "gold",
      "normalTexture": {
        "index": 8
      },
      "pbrMetallicRoughness": {
        "baseColorTexture": {
          "index": 6
        },
        "metallicRoughnessTexture": {
          "index": 7
        }
      }
    },
    {
      "doubleSided": true,
      "extensions": {
        "KHR_materials_specular": {
          "specularColorFactor": [
            1.0,
            1.0,
            1.0
          ],
          "specularFactor": 0.2193703976413043
        }
      },
      "name": "belt",
      "normalTexture": {
        "index": 11
      },
      "pbrMetallicRoughness": {
        "baseColorTexture": {
          "index": 9
        },
        "metallicRoughnessTexture": {
          "index": 10
        }
      }
    }
  ],
  "meshes": [
    {
      "name": "tome_v1_cover_0",
      "primitives": [
        {
          "attributes": {
            "NORMAL": 1,
            "POSITION": 0,
            "TANGENT": 2,
            "TEXCOORD_0": 3
          },
          "indices": 4,
          "material": 0,
          "mode": 4
        }
      ]
    },
    {
      "name": "tome_v1_paper_0",
      "primitives": [
        {
          "attributes": {
            "NORMAL": 6,
            "POSITION": 5,
            "TANGENT": 7,
            "TEXCOORD_0": 8
          },
          "indices": 9,
          "material": 1,
          "mode": 4
        }
      ]
    },
    {
      "name": "tome_v1_gold_0",
      "primitives": [
        {
          "attributes": {
            "NORMAL": 11,
            "POSITION": 10,
            "TANGENT": 12,
            "TEXCOORD_0": 13
          },
          "indices": 14,
          "material": 2,
          "mode": 4
        }
      ]
    },
    {
      "name": "tome_v1_belt_0",
      "primitives": [
        {
          "attributes": {
            "NORMAL": 16,
            "POSITION": 15,
            "TANGENT": 17,
            "TEXCOORD_0": 18
          },
          "indices": 19,
          "material": 3,
          "mode": 4
        }
      ]
    }
  ],
  "nodes": [
    {
      "children": [
        1
      ],
      "matrix": [
        1.0,
        0.0,
        0.0,
        0.0,
        0.0,
        2.220446049250313e-16,
        -1.0,
        0.0,
        0.0,
        1.0,
        2.220446049250313e-16,
        0.0,
        0.0,
        0.0,
        0.0,
        1.0
      ],
      "name": "Sketchfab_model"
    },
    {
      "children": [
        2
      ],
      "matrix": [
        1.0,
        0.0,
        0.0,
        0.0,
        0.0,
        0.0,
        1.0,
        0.0,
        0.0,
        -1.0,
        0.0,
        0.0,
        0.0,
        0.0,
        0.0,
        1.0
      ],
      "name": "tome_v1.fbx"
    },
    {
      "children": [
        3
      ],
      "name": "RootNode"
    },
    {
      "children": [
        4,
        5,
        6,
        7
      ],
      "matrix": [
        1.0,
        0.0,
        0.0,
        0.0,
        0.0,
        0.9999999999999971,
        -7.54979012640433e-08,
        0.0,
        0.0,
        7.54979012640433e-08,
        0.9999999999999971,
        0.0,
        0.0,
        0.0,
        0.0,
        1.0
      ],
      "name": "tome_v1"
    },
    {
      "mesh": 0,
      "name": "tome_v1_cover_0"
    },
    {
      "mesh": 1,
      "name": "tome_v1_paper_0"
    },
    {
      "mesh": 2,
      "name": "tome_v1_gold_0"
    },
    {
      "mesh": 3,
      "name": "tome_v1_belt_0"
    }
  ],
  "samplers": [
    {
      "magFilter": 9729,
      "minFilter": 9987,
      "wrapS": 10497,
      "wrapT": 10497
    }
  ],
  "scene": 0,
  "scenes": [
    {
      "name": "Sketchfab_Scene",
      "nodes": [
        0
      ]
    }
  ],
  "textures": [
    {
      "sampler": 0,
      "source": 0
    },
    {
      "sampler": 0,
      "source": 1
    },
    {
      "sampler": 0,
      "source": 2
    },
    {
      "sampler": 0,
      "source": 3
    },
    {
      "sampler": 0,
      "source": 4
    },
    {
      "sampler": 0,
      "source": 5
    },
    {
      "sampler": 0,
      "source": 6
    },
    {
      "sampler": 0,
      "source": 7
    },
    {
      "sampler": 0,
      "source": 8
    },
    {
      "sampler": 0,
      "source": 9
    },
    {
      "sampler": 0,
      "source": 10
    },
    {
      "sampler": 0,
      "source": 11
    }
  ]
}
